<svg width="86" height="94" fill="none" xmlns="http://www.w3.org/2000/svg"><path d="M42.755 31.363c-5.14 0-9.321 4.17-9.321 9.322 0 2.636 1.115 5.008 2.88 6.705V94h13.21V47.062c1.579-1.67 2.556-3.903 2.556-6.377-.004-5.148-4.174-9.322-9.325-9.322z" fill="#93DF1B"/><path d="M42.596 0C19.082 0 .014 19.065.014 42.581c0 14.983 7.747 28.123 19.444 35.71 0 0 1.075.508 1.075-1.324V71.11c0-.639-1.075-1.312-1.075-1.312-7.743-6.59-12.745-16.266-12.745-27.22 0-19.819 16.067-35.886 35.883-35.886 19.818 0 35.892 16.067 35.892 35.886 0 10.66-4.745 20.14-12.126 26.71 0 0-1.068.946-1.068 1.703v5.905c0 1.301 1.068 1.024 1.068 1.024 11.352-7.652 18.825-20.623 18.825-35.342C85.187 19.065 66.118 0 42.596 0z" fill="#93DF1B"/><path d="M42.755 14.16c-14.824 0-26.842 12.019-26.842 26.846 0 10.16 5.647 18.984 13.965 23.547 0 0 1.375.672 1.375-.977v-5.894c0-.825-1.375-1.535-1.375-1.535-4.303-3.663-7.091-9.05-7.091-15.138 0-11.038 8.94-19.974 19.968-19.974 11.038 0 19.977 8.94 19.977 19.974 0 6.067-2.771 11.44-7.05 15.098 0 0-1.095.753-1.095 1.436v5.911c0 1.227 1.095 1.075 1.095 1.075 8.297-4.57 13.921-13.387 13.921-23.52 0-14.83-12.015-26.848-26.848-26.848z" fill="#93DF1B"/></svg>