<svg width="116" height="75" fill="none" xmlns="http://www.w3.org/2000/svg"><path d="M114.706 33.009c-6.043-9.94-14.167-17.926-24.373-23.959C80.127 3.017 69.35 0 58 0 46.65 0 35.873 3.016 25.666 9.05 15.46 15.083 7.336 23.07 1.294 33.01.431 34.528 0 36.025 0 37.5s.431 2.974 1.294 4.492c6.042 9.94 14.166 17.927 24.372 23.958C35.873 71.986 46.65 75 58 75c11.35 0 22.127-3.005 32.333-9.016 10.206-6.01 18.332-14.008 24.373-23.99.863-1.52 1.294-3.016 1.294-4.493 0-1.476-.431-2.973-1.294-4.492zM44.114 15.202c3.862-3.884 8.49-5.827 13.885-5.827a2.99 2.99 0 012.202.912c.603.607.907 1.345.907 2.213 0 .869-.304 1.607-.906 2.213a2.986 2.986 0 01-2.201.912c-3.711 0-6.884 1.324-9.516 3.971-2.633 2.65-3.949 5.839-3.949 9.571 0 .87-.303 1.607-.907 2.215a2.986 2.986 0 01-2.2.912 2.99 2.99 0 01-2.202-.912 3.028 3.028 0 01-.907-2.215c0-5.425 1.932-10.08 5.794-13.965zm42.012 43.557C77.474 64.031 68.099 66.67 58 66.67c-10.098 0-19.474-2.636-28.126-7.91-8.652-5.274-15.848-12.36-21.588-21.258 6.56-10.243 14.78-17.905 24.663-22.982C30.317 19.032 29 23.916 29 29.167c0 8.03 2.838 14.898 8.512 20.606C43.187 55.48 50.017 58.334 58 58.334c7.984 0 14.812-2.854 20.488-8.561C84.163 44.066 87 37.198 87 29.167c0-5.251-1.317-10.135-3.95-14.648 9.883 5.077 18.104 12.74 24.663 22.982-5.738 8.899-12.934 15.984-21.587 21.258z" fill="#93DF1B"/></svg>