<svg width="69" height="94" fill="none" xmlns="http://www.w3.org/2000/svg"><path d="M64.056 39.293h-.142c-2.718 0-5.006 2.309-5.006 5.276v4.112a1.486 1.486 0 01-2.972 0v-7.594c0-2.967-2.156-5.38-4.874-5.38-2.732 0-4.889 2.413-4.889 5.38v8.049a1.485 1.485 0 01-2.97 0V38.877c0-2.966-2.243-5.309-4.96-5.309h-.151c-2.65 0-4.865 2.222-4.865 5.086v11.551a1.485 1.485 0 01-2.971 0V38.99c0-.037-.005-.075-.005-.112 0-.092.005-.183.005-.273V17.38c0-2.967-2.241-5.38-4.958-5.38-2.718 0-4.958 2.412-4.96 5.376l-.03 38.488a1.485 1.485 0 01-2.634.942l-5.198-6.32a7.914 7.914 0 00-5.584-2.951 7.747 7.747 0 00-5.818 2.085c-.018.017-.037.037-.057.053L0 50.523 18.02 85.12C20.864 90.58 26.242 94 32.055 94h20.83c8.865 0 16.083-7.792 16.092-17.336l.014-11.9c.011-8.163.015-11.165-.006-20.158-.007-2.959-2.218-5.313-4.929-5.313z" fill="#93DF1B"/><path d="M41.835 24.675c2.502-6.703.899-14.298-4.087-19.342-7.028-7.11-18.467-7.11-25.495 0-4.986 5.044-6.589 12.639-4.09 19.345.104.278.263.519.458.716.539.545 2.873.748 3.632.462 1.034-.399 1.621-2.447 1.233-3.493-1.946-5.22-.408-9.673 3.467-13.593 3.876-3.921 12.136-4.385 16.903.438 3.875 3.92 4.547 7.936 2.6 13.155-.393 1.046.697 3.118 1.734 3.508 1.037.395 3.255-.147 3.645-1.196z" fill="#93DF1B"/></svg>