<svg width="23" height="15" fill="none" xmlns="http://www.w3.org/2000/svg"><path d="M2.736 3.488c-.106.075-.496.197-1.168.368-.544.16-.821.245-.832.256V2.464c.427-.15.891-.352 1.392-.608.512-.267.886-.539 1.12-.816H4.96V14H2.736V3.488zm8.122 10.704c-1.099 0-1.936-.341-2.512-1.024-.576-.683-.864-1.595-.864-2.736V4.688c0-1.184.277-2.112.832-2.784.555-.672 1.403-1.008 2.544-1.008 1.12 0 1.963.341 2.528 1.024.565.672.848 1.595.848 2.768v5.744c0 1.141-.288 2.053-.864 2.736-.576.683-1.413 1.024-2.512 1.024zm0-1.904c.757 0 1.136-.63 1.136-1.888V4.72c0-.565-.08-1.024-.24-1.376-.15-.363-.448-.544-.896-.544-.459 0-.763.181-.912.544-.15.352-.224.81-.224 1.376v5.68c0 .523.08.97.24 1.344.17.363.47.544.896.544zm8.547 1.904c-1.099 0-1.936-.341-2.512-1.024-.576-.683-.864-1.595-.864-2.736V4.688c0-1.184.277-2.112.832-2.784.555-.672 1.402-1.008 2.544-1.008 1.12 0 1.962.341 2.528 1.024.565.672.848 1.595.848 2.768v5.744c0 1.141-.288 2.053-.864 2.736-.576.683-1.414 1.024-2.512 1.024zm0-1.904c.757 0 1.136-.63 1.136-1.888V4.72c0-.565-.08-1.024-.24-1.376-.15-.363-.448-.544-.896-.544-.459 0-.763.181-.912.544-.15.352-.224.81-.224 1.376v5.68c0 .523.08.97.24 1.344.17.363.47.544.896.544z" fill="#93DF1B"/></svg>