<svg width="22" height="22" fill="none" xmlns="http://www.w3.org/2000/svg"><path d="M17.967 5.205l-3.56 3.56h2.437a.86.86 0 110 1.72H13.62a2.15 2.15 0 01-2.148-2.15V5.114a.86.86 0 111.718 0V7.55l3.56-3.56a.86.86 0 111.216 1.215zM9.711 17.617a.86.86 0 00.86-.86v-3.222a2.15 2.15 0 00-2.15-2.148H5.2a.86.86 0 100 1.718h2.437l-3.56 3.56a.86.86 0 101.215 1.216l3.56-3.56v2.437c0 .475.385.86.86.86zm11.43-2.492a.86.86 0 00.859-.86V3.438A3.441 3.441 0 0018.562 0H3.438A3.441 3.441 0 000 3.438v15.124A3.441 3.441 0 003.438 22h15.124A3.441 3.441 0 0022 18.562a.86.86 0 10-1.719 0 1.72 1.72 0 01-1.718 1.72H3.438a1.72 1.72 0 01-1.72-1.72V3.438a1.72 1.72 0 011.72-1.718h15.124a1.72 1.72 0 011.72 1.718v10.829c0 .474.384.859.859.859z" fill="#93DF1B"/></svg>