<svg width="20" height="17" fill="none" xmlns="http://www.w3.org/2000/svg"><path d="M0 .224h3.099L4.86 11.45 6.5.224h3.282L6.785 16.755H2.957L0 .225zM15.706 17c-1.566 0-2.734-.415-3.504-1.245-.756-.843-1.161-2.177-1.215-4l3.099-.47c.013 1.048.135 1.803.364 2.266.244.449.601.674 1.074.674.607 0 .911-.402.911-1.205 0-.639-.148-1.19-.445-1.653-.284-.462-.736-.959-1.357-1.49l-1.418-1.244c-.702-.599-1.25-1.232-1.64-1.898-.379-.68-.568-1.483-.568-2.408 0-1.388.405-2.456 1.216-3.205C13.046.374 14.172 0 15.604 0c1.553 0 2.606.456 3.16 1.367.567.912.87 2.02.91 3.327l-3.118.388c-.027-.858-.108-1.47-.243-1.837-.122-.381-.399-.572-.83-.572-.311 0-.554.137-.73.409a1.618 1.618 0 00-.243.877c0 .558.122 1.027.365 1.408.256.381.661.817 1.215 1.306l1.357 1.205c.81.693 1.438 1.428 1.884 2.204.445.775.668 1.693.668 2.755a4.21 4.21 0 01-.547 2.122 3.863 3.863 0 01-1.499 1.49c-.648.367-1.397.551-2.248.551z" fill="#93DF1B"/></svg>