<svg width="24" height="21" fill="none" xmlns="http://www.w3.org/2000/svg"><path d="M20.536 10.991H18.68c.189.518.292 1.077.292 1.66v7.015c0 .242-.042.476-.119.692h3.069A2.081 2.081 0 0024 18.28v-3.824a3.468 3.468 0 00-3.464-3.465zM5.028 12.65c0-.582.103-1.14.293-1.659H3.465A3.468 3.468 0 000 14.456v3.824c0 1.146.932 2.079 2.079 2.079h3.068a2.07 2.07 0 01-.119-.693V12.65zm9.093-3.463H9.878a3.468 3.468 0 00-3.464 3.464v7.015c0 .383.31.693.692.693h9.787c.383 0 .693-.31.693-.693V12.65a3.468 3.468 0 00-3.465-3.464zM12 0a4.171 4.171 0 00-4.167 4.167A4.17 4.17 0 0012 8.333a4.17 4.17 0 004.167-4.167A4.171 4.171 0 0012 0zM4.684 3.884A3.12 3.12 0 001.568 7a3.12 3.12 0 004.344 2.863 3.136 3.136 0 001.522-1.4A3.09 3.09 0 007.8 7a3.12 3.12 0 00-3.116-3.116zm14.632 0A3.12 3.12 0 0016.2 7c0 .529.133 1.027.366 1.464a3.14 3.14 0 001.522 1.4A3.12 3.12 0 0022.432 7a3.12 3.12 0 00-3.116-3.117z" fill="#93DF1B"/></svg>