<svg width="16" height="15" fill="none" xmlns="http://www.w3.org/2000/svg"><path d="M3.728 14.176c-2.25 0-3.376-1.29-3.376-3.872 0-1.515.518-2.56 1.552-3.136a3.073 3.073 0 01-.992-1.152C.667 5.526.544 4.928.544 4.224c0-1.045.272-1.861.816-2.448.544-.587 1.334-.88 2.368-.88 1.046 0 1.835.293 2.368.88.534.587.8 1.403.8 2.448 0 1.355-.448 2.336-1.344 2.944 1.035.587 1.552 1.648 1.552 3.184 0 2.55-1.125 3.824-3.376 3.824zm0-7.872c.704-.01 1.056-.699 1.056-2.064 0-.512-.085-.917-.256-1.216-.17-.299-.437-.448-.8-.448-.362 0-.634.15-.816.448-.18.299-.272.699-.272 1.2 0 1.376.363 2.07 1.088 2.08zm0 6.192c.491 0 .816-.203.976-.608.16-.416.24-.96.24-1.632 0-.619-.09-1.115-.272-1.488-.17-.384-.485-.581-.944-.592-.458.01-.778.219-.96.624-.18.395-.272.917-.272 1.568 0 .63.086 1.141.256 1.536.171.395.496.592.976.592zm8.349 1.696c-1.099 0-1.936-.341-2.512-1.024-.576-.683-.864-1.595-.864-2.736V4.688c0-1.184.277-2.112.832-2.784.554-.672 1.402-1.008 2.544-1.008 1.12 0 1.962.341 2.528 1.024.565.672.848 1.595.848 2.768v5.744c0 1.141-.288 2.053-.864 2.736-.576.683-1.414 1.024-2.512 1.024zm0-1.904c.757 0 1.136-.63 1.136-1.888V4.72c0-.565-.08-1.024-.24-1.376-.15-.363-.448-.544-.896-.544-.459 0-.763.181-.912.544-.15.352-.224.81-.224 1.376v5.68c0 .523.08.97.24 1.344.17.363.469.544.896.544z" fill="#93DF1B"/></svg>