<svg width="26" height="20" fill="none" xmlns="http://www.w3.org/2000/svg"><path d="M20.583 15.616l.053-14.11C20.638.675 19.988.004 19.2 0c-.796-.002-1.445.667-1.449 1.494l-.052 14.11c-.003.827.642 1.501 1.437 1.505.798.003 1.445-.664 1.448-1.493zM16.306 1.94l-.308.212c-2.165 1.488-4.754 2.346-7.324 2.547l-.028 7.676c2.568.222 5.15 1.052 7.305 2.557l.307.214.048-13.206zM7.231 4.784l-5.048-.02C.99 4.759.016 5.759.011 7.004L0 10c-.005 1.24.958 2.252 2.155 2.257l5.049.02.027-7.494zM3.61 9.267c-.399-.002-.72-.339-.719-.753.002-.414.326-.748.724-.746l1.443.006c.398.001.72.338.718.752-.002.414-.326.748-.724.746L3.61 9.267zm2.908 8.126l1.388.005c1.198.005 2.168-1 2.171-2.239l.005-1.071a13.178 13.178 0 00-1.442-.214l-.005 1.28a.734.734 0 01-.724.746l-1.41-.006-.024-2.12-2.885-.012.054 4.735c-.004.821.64 1.5 1.437 1.503.796.003 1.445-.666 1.448-1.493l-.013-1.114zM23.767 3.872a.702.702 0 00-1.02-.004l-1.024 1.056a.77.77 0 00-.004 1.06.702.702 0 001.02.004l1.024-1.056a.77.77 0 00.004-1.06zm-.032 8.478l-1.016-1.063a.702.702 0 00-1.02-.004.77.77 0 00-.004 1.06l1.017 1.063a.702.702 0 001.02.005.77.77 0 00.003-1.06zM26 8.65a.735.735 0 00-.718-.752l-2.04-.008a.735.735 0 00-.724.746.736.736 0 00.718.753l2.04.008A.735.735 0 0026 8.65z" fill="#93DF1B"/></svg>