<svg width="22" height="19" fill="none" xmlns="http://www.w3.org/2000/svg"><path d="M4.544 10.787c-1.619 0-2.78-.406-3.486-1.217C.353 8.76 0 7.488 0 5.756v-.842C0 3.167.337 1.91 1.01 1.147 1.7.382 2.877 0 4.544 0 6.211 0 7.39.382 8.08 1.147c.689.748 1.034 1.988 1.034 3.72v.936c0 1.716-.353 2.98-1.058 3.79-.706.796-1.876 1.194-3.51 1.194zM12.887.023h2.164L9.09 18.977H6.9L12.887.023zm-8.343 8.33c.401 0 .698-.1.89-.304.192-.203.312-.483.36-.842.049-.374.073-.905.073-1.591V5.03c0-.702-.024-1.217-.072-1.545-.049-.343-.169-.6-.361-.772-.176-.171-.473-.257-.89-.257-.416 0-.721.086-.913.257-.177.172-.289.43-.337.772-.048.328-.072.835-.072 1.521v.632c0 .999.08 1.7.24 2.106.16.406.521.608 1.082.608zM17.432 19c-1.62 0-2.781-.406-3.487-1.217-.689-.81-1.034-2.082-1.034-3.814v-.842c0-1.747.337-3.003 1.01-3.767.69-.765 1.86-1.147 3.51-1.147 1.668 0 2.846.382 3.535 1.147.69.748 1.034 1.989 1.034 3.72v.913c0 1.716-.353 2.98-1.058 3.79-.705.811-1.875 1.217-3.51 1.217zm0-2.433c.4 0 .697-.102.89-.305.192-.203.312-.483.36-.842.048-.374.072-.897.072-1.568v-.632c0-.702-.024-1.216-.072-1.544-.048-.328-.168-.577-.36-.749-.177-.171-.473-.257-.89-.257-.417 0-.722.086-.914.257-.176.172-.288.43-.337.773-.048.327-.072.834-.072 1.52v.632c0 .999.08 1.7.24 2.106.161.406.522.609 1.083.609z" fill="#93DF1B"/></svg>