<svg width="16" height="15" fill="none" xmlns="http://www.w3.org/2000/svg"><path d="M3.765 14.192c-1.226 0-2.08-.325-2.56-.976-.47-.661-.704-1.637-.704-2.928h2.16c0 .736.08 1.29.24 1.664.16.373.475.56.944.56.352 0 .614-.112.784-.336.17-.235.278-.544.32-.928.054-.395.08-.939.08-1.632 0-.853-.08-1.483-.24-1.888-.16-.405-.49-.608-.992-.608-.298 0-.554.101-.768.304-.202.203-.352.48-.448.832H.677L.805 1.04H6.63v1.984H2.661l-.128 3.12c.182-.203.443-.363.784-.48a3.166 3.166 0 011.12-.192c.918 0 1.595.352 2.032 1.056.448.693.672 1.675.672 2.944 0 .992-.096 1.83-.288 2.512-.181.683-.517 1.221-1.008 1.616-.49.395-1.184.592-2.08.592zm8.179 0c-1.099 0-1.936-.341-2.512-1.024-.576-.683-.864-1.595-.864-2.736V4.688c0-1.184.277-2.112.832-2.784.555-.672 1.402-1.008 2.544-1.008 1.12 0 1.962.341 2.528 1.024.565.672.848 1.595.848 2.768v5.744c0 1.141-.288 2.053-.864 2.736-.576.683-1.413 1.024-2.512 1.024zm0-1.904c.757 0 1.136-.63 1.136-1.888V4.72c0-.565-.08-1.024-.24-1.376-.15-.363-.448-.544-.896-.544-.459 0-.763.181-.912.544-.15.352-.224.81-.224 1.376v5.68c0 .523.08.97.24 1.344.17.363.47.544.896.544z" fill="#93DF1B"/></svg>