<svg width="14" height="15" fill="none" xmlns="http://www.w3.org/2000/svg"><path fill-rule="evenodd" clip-rule="evenodd" d="M9.93.643H3.785A3.789 3.789 0 000 4.428v6.144a3.789 3.789 0 003.785 3.785H9.93a3.789 3.789 0 003.784-3.784V4.428A3.789 3.789 0 009.93.643zM6.857 3.966A3.538 3.538 0 003.323 7.5a3.538 3.538 0 003.534 3.534A3.538 3.538 0 0010.391 7.5a3.538 3.538 0 00-3.534-3.534zm0 5.85A2.32 2.32 0 014.54 7.5a2.32 2.32 0 012.317-2.317A2.32 2.32 0 019.174 7.5a2.32 2.32 0 01-2.317 2.317zm3.052-6.62a.896.896 0 011.261 0 .896.896 0 010 1.262.901.901 0 01-.63.261.9.9 0 01-.631-.261.9.9 0 01-.262-.631c0-.235.095-.466.262-.631z" fill="#2E2E2E"/></svg>