<svg width="20" height="20" fill="none" xmlns="http://www.w3.org/2000/svg"><path d="M19.464 14.822l-3.154-3.17a1.825 1.825 0 00-2.596-.003l-.003.003-1.807 1.823a.396.396 0 01-.511.045 20.466 20.466 0 01-2.767-2.343 20.668 20.668 0 01-2.099-2.473.399.399 0 01.04-.515l1.85-1.869a1.862 1.862 0 000-2.615L5.264.526a1.868 1.868 0 00-2.598 0l-1 1.007a5.693 5.693 0 00-1.39 5.773 17.035 17.035 0 002.054 4.199 21.427 21.427 0 002.694 3.305 21.178 21.178 0 003.609 2.937 16 16 0 004.67 2.095c.425.106.863.159 1.301.158a5.656 5.656 0 004.002-1.698l.859-.866a1.862 1.862 0 000-2.614z" fill="#93DF1B"/></svg>